<?xml version="1.0" encoding="utf-8"?>
<!-- Generator: Adobe Illustrator 19.0.0, SVG Export Plug-In . SVG Version: 6.00 Build 0)  -->
<svg version="1.1" id="Layer_1" xmlns="http://www.w3.org/2000/svg" xmlns:xlink="http://www.w3.org/1999/xlink" x="0px" y="0px"
	 viewBox="0 0 300 100" style="enable-background:new 0 0 300 100;" xml:space="preserve">
<style type="text/css">
	.st0{fill:#597193;}
</style>
<g id="XMLID_42_">
	<path id="XMLID_46_" class="st0" d="M44.7,63.3l9.4-26.4h10.6l9.3,26.4H63.7L62.9,60h-7.2l-0.8,3.3H44.7z M54.5,35.7l2.6-4.7h4
		l2.6,4.7h-2.2l-2.4-2.3l-2.4,2.3H54.5z M57.3,53.7h4l-0.8-3c-0.6-2.3-1-4.3-1.1-5.8h-0.2c-0.1,1.5-0.4,3.5-1.1,5.8L57.3,53.7z
		 M69.5,27.5l-4.2,4.7h-2.2l2.4-4.7H69.5z"/>
	<path id="XMLID_51_" class="st0" d="M73.9,51.2V36.8h9.5v14.4c0,1.4,0.1,2.3,0.3,3c0.4,1,1.2,1.4,2.3,1.4c1.1,0,1.9-0.5,2.3-1.4
		c0.2-0.6,0.4-1.6,0.4-3V36.8h9.5v14.3c0,3.6-0.5,6.1-1.6,7.7c-2.3,3.4-5.8,5.1-10.6,5.1c-4.9,0-8.4-1.7-10.6-5.1
		c-0.5-0.8-0.9-1.8-1.2-3C74,54.7,73.9,53.1,73.9,51.2z"/>
	<path id="XMLID_54_" class="st0" d="M123.6,53.8h-4.1v-6.2h14.6c0,0.3,0,0.7,0.1,1.2v0.7c0,3.1-0.6,5.6-1.7,7.5
		c-1.3,2.3-3.1,4-5.2,5.2c-2.2,1.2-4.6,1.8-7.2,1.8c-4.1,0-7.4-1.3-10.1-3.9s-4-5.9-4-9.9c0-4,1.3-7.3,4-9.9c2.6-2.6,6-4,10.2-4
		c5.6,0,9.7,2.3,12.4,7l-8.5,3.1c-0.9-1.5-2.1-2.2-3.8-2.2c-1.6,0-2.7,0.6-3.6,1.9c-0.7,1.1-1.1,2.4-1.1,4.1c0,1.7,0.4,3.1,1.1,4.1
		c0.8,1.2,2.1,1.8,3.7,1.8C122.3,56,123.4,55.3,123.6,53.8z"/>
	<path id="XMLID_56_" class="st0" d="M136.7,63.3V36.8h9.7v26.4H136.7z"/>
	<path id="XMLID_59_" class="st0" d="M146.8,63.3l9.4-26.4h10.6l9.3,26.4h-10.2L165,60h-7.2l-0.8,3.3H146.8z M159.4,53.7h4l-0.8-3
		c-0.6-2.3-1-4.3-1.1-5.8h-0.2c-0.1,1.5-0.4,3.5-1.1,5.8L159.4,53.7z M166,30.6l-4.2,4.7h-2.2l2.4-4.7H166z"/>
	<path id="XMLID_63_" class="st0" d="M184.8,63.3V36.8h9.3l8.2,13.8c-0.2-1.1-0.3-2.8-0.3-5v-8.9h9.2v26.4h-9.4l-8.1-13.7
		c0.2,1.1,0.3,2.5,0.3,4.2v9.5H184.8z"/>
	<path id="XMLID_65_" class="st0" d="M231.8,53.8h-4.1v-6.2h14.6c0,0.3,0,0.7,0.1,1.2v0.7c0,3.1-0.6,5.6-1.7,7.5
		c-1.3,2.3-3.1,4-5.2,5.2c-2.2,1.2-4.6,1.8-7.2,1.8c-4.1,0-7.4-1.3-10.1-3.9s-4-5.9-4-9.9c0-4,1.3-7.3,4-9.9c2.6-2.6,6-4,10.2-4
		c5.6,0,9.7,2.3,12.4,7l-8.5,3.1c-0.9-1.5-2.1-2.2-3.8-2.2c-1.6,0-2.7,0.6-3.6,1.9c-0.7,1.1-1.1,2.4-1.1,4.1c0,1.7,0.4,3.1,1.1,4.1
		c0.8,1.2,2.1,1.8,3.7,1.8C230.5,56,231.5,55.3,231.8,53.8z"/>
	<path id="XMLID_67_" class="st0" d="M240.4,63.3l9.4-26.4h10.6l9.3,26.4h-10.2l-0.8-3.3h-7.2l-0.8,3.3H240.4z M253,53.7h4l-0.8-3
		c-0.6-2.3-1-4.3-1.1-5.8h-0.2c-0.1,1.5-0.4,3.5-1.1,5.8L253,53.7z"/>
	<path id="XMLID_70_" class="st0" d="M271.6,63.3V51.6l-8.8-14.8h10.8l2.2,5.1c0.2,0.6,0.5,1.2,0.7,2c0,0,0,0.1,0.1,0.2
		c0.1-0.5,0.4-1.1,0.7-1.8c0-0.1,0.1-0.2,0.1-0.3l2.2-5.1h10.8l-9.2,14.8v11.7H271.6z"/>
</g>
<path id="XMLID_43_" class="st0" d="M38.3,38.5c-2.1-1.1-5.6-1.7-10.5-1.7h-7.7v11.2h0.4c0.8,0,1.5-0.2,1.7,0.6
	c1.2-0.1,2.5-0.1,3.8-0.1h0.7l0-2.2c-0.9-0.3-1.6-1.1-1.6-2.1l0-0.3c0-1.2,1-2.2,2.2-2.2l5.1,0c1.2,0,2.2,1,2.2,2.2v0.3
	c0,1-0.7,1.8-1.6,2.1l0,2.5c0.8,0.1,1.5,0.2,2,0.3v-0.7c0-0.6,0.5-1.1,1.1-1.1c0.6,0,1.1,0.5,1.1,1.1l0,3.1c0,0.6-0.5,1.1-1.1,1.1
	c-0.6,0-1.1-0.5-1.1-1.1v-0.7c-0.6,0.1-1.3,0.2-2,0.3l0,2.9c0.9,0.2,1.6,1.1,1.6,2.1v0.3c0,1.2-1,2.2-2.2,2.2l-5.1,0
	c-1.2,0-2.2-1-2.2-2.2v-0.3c0-1,0.7-1.8,1.6-2.1l0-2.6c-0.2,0-0.5,0-0.7,0c-1.3,0-2.6,0-3.8-0.1c-0.2,0.8-0.9,0.6-1.7,0.6h-0.4v11.3
	h7c5.4,0,9.1-0.6,11.2-1.7c4.7-2.5,7.1-6.4,7.1-11.5C45.4,44.9,43,41,38.3,38.5z"/>
<path id="XMLID_44_" class="st0" d="M287.2,77.1H23.3c-1.8,0-3.2-1.4-3.2-3.2v0c0-1.8,1.4-3.2,3.2-3.2h263.9c1.8,0,3.2,1.4,3.2,3.2
	v0C290.4,75.7,288.9,77.1,287.2,77.1z"/>
<path id="XMLID_74_" class="st0" d="M267.1,72.7H43.4c-1.5,0-2.6-1.2-2.6-2.6v0c0-1.5,1.2-2.6,2.6-2.6h223.7c1.5,0,2.6,1.2,2.6,2.6
	v0C269.7,71.5,268.5,72.7,267.1,72.7z"/>
</svg>
